<svg xmlns="http://www.w3.org/2000/svg" width="40" height="37" viewBox="0 0 40 37"><defs><linearGradient id="a" x1="50%" x2="50%" y1="17.79%" y2="158.541%"><stop offset="0%" stop-color="#F7CA48"/><stop offset="100%" stop-color="#CDA040"/></linearGradient></defs><g fill-rule="nonzero" fill="none"><path fill="#FFE455" d="M20.793 16.38c-3.903-3.951-11.036-4.694-11.036-4.694a8.49 8.49 0 00-.522.571C3.231 22.83.347 32.894.02 34.072l-.016.115v.014s.096.667 1.11 1.672c1.015 1.006 1.688 1.1 1.689 1.1.001 0 10.38-2.911 22.263-9.238.173-.146.33-.285.468-.426-.002.001-.756-7.064-4.74-10.929z"/><path fill="#9F50D0" d="M7.106 16.227a104.487 104.487 0 00-2.006 4.19c.587 4.63 6.347 10.654 9.535 12.263a149.6 149.6 0 003.002-1.307c-5.683-2.582-11.084-10.177-10.53-15.146zm-4.04 8.998c-.436 1.1-.823 2.128-1.163 3.07.727 2.38 2.98 5.333 5.787 7.08.813-.285 1.711-.616 2.682-.985-3.014-1.59-6.73-5.937-7.306-9.165z"/><path fill="#F9D2AC" d="M25.532 27.31a24.577 24.577 0 00-1.708-6.304c-1.25 1.099-.27 3.708-1.69 4.588-.289.212.755 2.5.4 2.424-2.336-.507-4.66.541-5.952 1.338-6.39 3.942-13.166 6.977-14.627 7.218.527.353.845.398.846.398.001 0 10.38-2.911 22.263-9.238.173-.144.33-.286.468-.424z" style="mix-blend-mode:multiply"/><ellipse cx="17.679" cy="19.465" fill="#FFDE52" rx="5.133" ry="11.102" transform="rotate(-45 17.679 19.465)"/><ellipse cx="17.789" cy="19.356" fill="url(#a)" rx="4.501" ry="10.253" transform="rotate(-45 17.789 19.356)"/><path fill="#9F50D0" d="M.516 32.4c-.266.857-.43 1.433-.495 1.669l-.017.117v.014s-.062.735.95 1.738c1.013 1.003 1.848 1.034 1.849 1.034.001 0 .4-.112 1.13-.339C2.308 35.55 1.016 34.04.516 32.4z"/><path fill="#F9D2AC" d="M3.846 29.882a114.583 114.583 0 012.687-4.506c.673-1.06 1.388-2.547 2.02-3.619.467-.792 1.642-2.682 1.132-3.436-.694-1.027-2.014 1.662-2.404 2.319-.852 1.443-1.586 2.952-2.404 4.412a68.13 68.13 0 00-2.226 4.315c-.362.776-1.112 2.18-1.438 2.966-.13.308-.445.933-.533 1.44a.3.3 0 00.17.321c.122.058.268.03.359-.07.745-.817 2.143-3.274 2.637-4.142z" opacity=".5" style="mix-blend-mode:screen"/><path fill="#F41B60" d="M14.168 16.937c2.156-1.763 4.837-4.153 5.338-7.057.192-1.143-.212-2.37-1.154-3.093-.719-.553-1.607-.712-2.495-.644-1.148.087-2.253 1.087-3.403.807-.525-.127-.891-.796-.758-1.312.087-.34.318-.648.56-.9.509-.534 1.198-.87 1.874-1.15a12.79 12.79 0 014.032-.921c.385-.027 0-1.605-.545-1.567a12.943 12.943 0 00-3.55.733c-1.068.39-2.284.936-2.89 1.95-.498.834-.466 1.833-.131 2.722.27.717.717 1.198 1.326 1.437.315.124.806-.072 1.205-.08 1.082-.015 2.061-.421 3.141-.45.584-.017 1.757.462 2.001 1.073.159.399-.422 1.495-.66 1.93-1.093 2.007-2.834 3.635-4.59 5.07-.35.285.279 1.795.697 1.452h.002z"/><path fill="#AF0068" d="M18.308 6.887a3.388 3.388 0 00-2.449-.744c-1.148.087-2.404.63-3.558.351-.406-.095-.625-.25-.64-.553-.125.762.087 1.531.714 2 .341.129.705.19 1.07.179 1.083-.016 2.116-.395 3.2-.425.584-.015 1.827.18 2.076.79a.47.47 0 01.027.174c.117-.469.195-1.257-.44-1.772z"/><path fill="#48B5FF" d="M37.586 7.897c-.192-.351-1.676.103-1.67.115.458.842.317 2.13-.66 2.558-.019-.012-.165-.008-.193-.026-.112-.078-.207-.115-.324-.19-.208-.14-.529-.286-.708-.457-.378-.367-.515-.836-.983-1.096-.701-.39-1.61-.381-2.376-.213-.956.21-1.393.887-1.58 1.81-.097.492-.097.998-.205 1.49a3.482 3.482 0 01-.223.719 2.054 2.054 0 01-.289.45.765.765 0 01-.091.089c-.112-.058-.364-.013-.405-.041-.175-.12-.403-.181-.562-.321-.333-.294-.426-.79-.822-1.003-.706-.381-1.538-.414-2.317-.286-.962.154-1.284.662-1.37 1.608a6.735 6.735 0 00.09 1.826c.089.49.244.985.216 1.488-.026.466-.336 1.23-.892 1.296-.536.063-1.538-.533-1.962-.81-.247-.162-.51-.07-.784-.036-.07.008-.866-.006-.714.09.934.613 1.85 1.102 2.993 1.115.892.01 2.096-.095 2.692-.847.688-.872.126-2.046.034-3.017a6.442 6.442 0 01.062-1.715c.038-.21.14-.404.294-.556a.907.907 0 01.613.185c.786.611 1.264 1.338 2.328 1.41.63.042 1.278.096 1.827-.217a1.65 1.65 0 00.617-.61c.64-1.104.193-2.582 1.027-3.598a.905.905 0 01.163-.127c.012.007.122 0 .13 0 .183.153.462.277.643.439.235.208.284.444.508.667.24.251.522.461.831.623 1.82.868 5.397-.354 4.062-2.812z"/><path fill="#216BD6" d="M20.372 16.753c-.247-.163-.76-.07-1.034-.036-.07.009-.717.133-.57.229.873.571 2.48 1.135 3.4.757-.543.007-1.39-.684-1.796-.95zm14.438-6.431a4.386 4.386 0 01-.57-.492c-.378-.367-.722-.773-1.19-1.033-.061-.033-.123-.063-.186-.095-.492-.047-1.051-.04-1.448.265.192.076.44.295.608.444.495.44 1.32 1.775 3.231 1.155a3.161 3.161 0 01-.446-.244zm-6.52 2.817c-.112-.058-.22-.112-.261-.14a5.98 5.98 0 01-.496-.4c-.334-.293-.636-.611-1.032-.825-.065-.036-.134-.065-.2-.095-.504-.113-1.047-.073-1.46.251.169.088.328.192.475.311.786.611 1.336 1.317 2.404 1.389.631.042 1.347-.009 1.892-.324-.614.208-1.309-.177-1.322-.167z"/><path fill="#F41B60" d="M33.58 24.342c-1.708-1.541-4.22-2.206-6.456-2.444a15.836 15.836 0 00-10.359 2.503l-.007.005c.344.26.688.505 1.03.732a16.426 16.426 0 019.093-1.786c2.094.2 4.284 1.048 6.3 2.456.418.293.638-1.154.398-1.466zm-2.268-6.808l-.333-1.391a.268.268 0 01.125-.3c.534-.298 1.784-.521 2.483-.42.13.019.245.095.31.208.22.454.33.952.325 1.455a.155.155 0 01-.164.136c-.72.014-2.232.28-2.517.419a.16.16 0 01-.14.001.16.16 0 01-.09-.108z"/><path fill="#30D6AF" d="M29.621 31.404L28.3 30.027a.367.367 0 01-.058-.428c.208-.39 1.243-1.667 2.115-2.012a.56.56 0 01.495.033c.475.28 1.118.979 1.355 1.453.045.1.002.216-.096.264-.816.494-1.918 1.689-2.153 2.037a.218.218 0 01-.336.03z"/><ellipse cx="25.316" cy="6.706" fill="#30D6AF" rx="1.03" ry="1" transform="rotate(-41.86 25.316 6.706)"/><ellipse cx="8.549" cy="2.333" fill="#FFE33E" rx="1" ry="1.026" transform="rotate(-34.46 8.55 2.333)"/><ellipse cx="37.917" cy="26.651" fill="#48B5FF" rx="1.145" ry="1.269" transform="rotate(-38.55 37.917 26.65)"/><path fill="#FA7697" d="M8.767 8.64l-1.413.571a.365.365 0 01-.414-.095c-.289-.322-.815-1.032-.835-1.938a.536.536 0 01.201-.436 2.93 2.93 0 011.493-.572.2.2 0 01.21.178c.144.71.43 1.384.844 1.982.037.05.049.115.032.175a.209.209 0 01-.118.135z"/><path fill="#FFE33E" d="M34.972 1.311l.757 1.975a.58.58 0 01-.107.643c-.447.421-1.443 1.179-2.744 1.12a.848.848 0 01-.642-.359c-.508-.694-.66-1.28-.77-2.1a.273.273 0 01.242-.315 6.53 6.53 0 002.806-1.13c.153-.115.374-.034.458.166z"/></g></svg>