<svg width="24" height="24" viewBox="0 0 32 32" fill="none" xmlns="http://www.w3.org/2000/svg">
<g clip-path="url(#clip0_208_934)">
<path d="M7.45365 31.9998C6.72389 31.9998 6.09895 31.7401 5.57884 31.2206C5.0596 30.702 4.79999 30.0782 4.79999 29.3494V10.7964C4.79999 10.0675 5.0596 9.44335 5.57884 8.92387C6.09895 8.40527 6.72389 8.14597 7.45365 8.14597H19.2956L16.6419 10.7964H7.45365V29.3494H26.0293V20.1391L28.6829 17.4887V29.3494C28.6829 30.0782 28.4233 30.702 27.9041 31.2206C27.3839 31.7401 26.759 31.9998 26.0293 31.9998H7.45365ZM22.281 8.90797L24.1717 10.7633L15.4146 19.5097V21.3981H17.2722L26.0624 12.6186L27.9532 14.4739L18.4 24.0485H12.761V18.4164L22.281 8.90797ZM27.9532 14.4739L22.281 8.90797L25.598 5.59493C26.1288 5.06485 26.7648 4.7998 27.506 4.7998C28.2464 4.7998 28.8709 5.06485 29.3795 5.59493L31.2371 7.48336C31.7457 7.99136 32 8.60979 32 9.33866C32 10.0675 31.7457 10.686 31.2371 11.194L27.9532 14.4739Z" fill="#292929"/>
</g>
<defs>
<clipPath id="clip0_208_934">
<rect width="32" height="32" fill="white"/>
</clipPath>
</defs>
</svg>
